<svg id="Layer_1" data-name="Layer 1" xmlns="http://www.w3.org/2000/svg" viewBox="0 0 184 23"><defs><style>.cls-1{fill:#0f0f0f;}.cls-2{fill:#e60a14;}.cls-3{fill:#686565;}</style></defs><polygon class="cls-1" points="153.84 21.91 153.84 1.12 168.87 1.12 168.87 6 158.71 6 158.71 9.08 168.87 9.08 168.87 13.95 158.71 13.95 158.71 17.03 168.87 17.03 168.87 21.91 153.84 21.91"/><path class="cls-1" d="M140.82,21.91h-7.5V1.12h7.5a12.94,12.94,0,0,1,4.33.72,10.73,10.73,0,0,1,3.6,2.07,9.88,9.88,0,0,1,2.45,3.28,10,10,0,0,1,.9,4.29,10,10,0,0,1-.9,4.3,10.22,10.22,0,0,1-2.42,3.29,10.55,10.55,0,0,1-3.59,2.11,12.89,12.89,0,0,1-4.37.73M138.2,17h2.62a8.07,8.07,0,0,0,2.87-.47,5.74,5.74,0,0,0,2-1.25,5,5,0,0,0,1.16-1.77,5.59,5.59,0,0,0,0-4,5,5,0,0,0-1.16-1.77,5.6,5.6,0,0,0-2-1.25A7.85,7.85,0,0,0,140.82,6H138.2Z"/><path class="cls-2" d="M131.59,11.56a10.3,10.3,0,0,1-3,7.32,10.29,10.29,0,0,1-3.27,2.22,10,10,0,0,1-4,.81,9.88,9.88,0,0,1-4-.81,10.36,10.36,0,0,1-3.26-2.22,10.56,10.56,0,0,1-2.2-3.28,10.09,10.09,0,0,1-.81-4,10.26,10.26,0,0,1,.79-4A10.69,10.69,0,0,1,114,4.22,10.36,10.36,0,0,1,117.26,2a9.78,9.78,0,0,1,4-.84h10.29Zm-4.8,0V5.92H121.3a5.33,5.33,0,0,0-3.86,1.63,5.83,5.83,0,0,0-1.17,1.8,5.91,5.91,0,0,0,0,4.4,5.23,5.23,0,0,0,2.89,2.92,5.5,5.5,0,0,0,4.31,0,5.58,5.58,0,0,0,1.74-1.16,5.22,5.22,0,0,0,1.17-1.76,5.69,5.69,0,0,0,.42-2.19"/><path class="cls-1" d="M109.11,15.22A10.21,10.21,0,0,1,107.56,18a10.66,10.66,0,0,1-2.23,2.12,10.25,10.25,0,0,1-5.88,1.84,10.1,10.1,0,0,1-7.26-3A10.48,10.48,0,0,1,90,15.58a10.26,10.26,0,0,1-.79-4A10.17,10.17,0,0,1,90,7.51a10.75,10.75,0,0,1,2.2-3.32,10.44,10.44,0,0,1,3.26-2.25,10.09,10.09,0,0,1,7.09-.33A10.88,10.88,0,0,1,105.33,3a10,10,0,0,1,2.22,2.1,10.43,10.43,0,0,1,1.53,2.73h-5.52a5.55,5.55,0,0,0-1.8-1.38,5.15,5.15,0,0,0-2.28-.51,5.33,5.33,0,0,0-3.86,1.63,5.83,5.83,0,0,0-1.17,1.8,5.91,5.91,0,0,0,0,4.4,5.23,5.23,0,0,0,2.89,2.92,5.2,5.2,0,0,0,2.15.44,5.29,5.29,0,0,0,2.32-.51,5.53,5.53,0,0,0,1.82-1.38Z"/><polygon class="cls-1" points="74.94 1.12 79.73 9.06 84.45 1.09 90.06 1.07 82.15 14.42 82.18 21.91 77.38 21.93 77.35 14.44 69.36 1.14 74.94 1.12"/><polygon class="cls-1" points="49.33 1.12 56.12 15.85 62.87 1.12 67.91 1.12 67.91 21.91 63.11 21.91 63.11 12.1 58.73 21.91 53.48 21.91 49.09 12.1 49.09 21.91 44.29 21.91 44.29 1.12 49.33 1.12"/><path class="cls-1" d="M32.13,1A10.49,10.49,0,1,0,42.62,11.51,10.48,10.48,0,0,0,32.13,1m0,16a5.48,5.48,0,1,1,5.48-5.48A5.47,5.47,0,0,1,32.13,17"/><path class="cls-1" d="M10.38,9.67H20l-.12,2.52a11.13,11.13,0,0,1-.85,4,9.79,9.79,0,0,1-2,3.06,9,9,0,0,1-3,2,9.7,9.7,0,0,1-3.77.72,10.25,10.25,0,0,1-4.08-.81,9.88,9.88,0,0,1-3.25-2.22A10.48,10.48,0,0,1,0,11.56a10.76,10.76,0,0,1,.77-4A10.44,10.44,0,0,1,2.88,4.19a9.85,9.85,0,0,1,7.26-3.07A10.3,10.3,0,0,1,13,1.51a9.48,9.48,0,0,1,2.53,1.14A9.32,9.32,0,0,1,17.6,4.48,9.07,9.07,0,0,1,19.08,7H13.35a4.27,4.27,0,0,0-1.75-.86,7.53,7.53,0,0,0-1.52-.19A5,5,0,0,0,8,6.35a5.27,5.27,0,0,0-1.68,1.2A5.59,5.59,0,0,0,5.21,9.34,5.8,5.8,0,0,0,4.8,11.5a5.88,5.88,0,0,0,.41,2.19,5.7,5.7,0,0,0,1.12,1.79A5.27,5.27,0,0,0,8,16.68a5,5,0,0,0,2.07.43,6.68,6.68,0,0,0,1-.09,5.28,5.28,0,0,0,1.23-.36,4.79,4.79,0,0,0,1.26-.79,3.9,3.9,0,0,0,1-1.4H10.38Z"/><path class="cls-3" d="M172.45,8.9a2.24,2.24,0,0,1-.94-.77,2,2,0,0,1-.37-1.1H172a1.66,1.66,0,0,0,.51,1,1.9,1.9,0,0,0,1.34.44,1.87,1.87,0,0,0,1.29-.42A1.34,1.34,0,0,0,175.61,7a1.24,1.24,0,0,0-.27-.83,1.63,1.63,0,0,0-.65-.47c-.26-.1-.62-.21-1.08-.34A9,9,0,0,1,172.34,5a2.05,2.05,0,0,1-.8-.64,1.9,1.9,0,0,1-.33-1.18,2,2,0,0,1,.32-1.1,2.2,2.2,0,0,1,.9-.77A3.18,3.18,0,0,1,173.77,1a2.84,2.84,0,0,1,1.8.54A2.07,2.07,0,0,1,176.35,3h-.87a1.42,1.42,0,0,0-.54-.88,2.15,2.15,0,0,0-2.44,0A1.27,1.27,0,0,0,172,3.12a1.2,1.2,0,0,0,.27.81,1.63,1.63,0,0,0,.65.47,9.22,9.22,0,0,0,1.07.34,10.6,10.6,0,0,1,1.26.43,2,2,0,0,1,.82.65A1.89,1.89,0,0,1,176.42,7a2,2,0,0,1-.3,1.06,2.19,2.19,0,0,1-.88.82,3,3,0,0,1-1.4.31A3.38,3.38,0,0,1,172.45,8.9Z"/><path class="cls-3" d="M184,9.09h-.8l-4.43-6.73V9.09H178v-8h.8l4.43,6.72V1.09h.8Z"/></svg>